<svg xmlns="http://www.w3.org/2000/svg" xmlns:xlink="http://www.w3.org/1999/xlink" version="1.1" width="256" height="256" viewBox="0 0 256 256" xml:space="preserve">

<defs>
</defs>
<g style="stroke: none; stroke-width: 0; stroke-dasharray: none; stroke-linecap: butt; stroke-linejoin: miter; stroke-miterlimit: 10; fill: none; fill-rule: nonzero; opacity: 1;" transform="translate(1.4065934065934016 1.4065934065934016) scale(2.81 2.81)" >
	<path d="M 80.223 72.421 c -1.029 0 -2.072 -0.164 -3.099 -0.499 l -20.456 -6.686 c -7.634 -2.494 -15.703 -2.494 -23.337 0 l -20.456 6.686 c -3.441 1.123 -7.079 0.325 -9.731 -2.141 c -2.652 -2.464 -3.716 -6.033 -2.847 -9.547 L 9 25.044 c 0.645 -2.611 2.283 -4.791 4.611 -6.139 c 2.329 -1.348 5.034 -1.682 7.621 -0.941 l 13.421 3.846 c 6.769 1.94 13.924 1.94 20.694 0 l 13.421 -3.846 c 2.583 -0.74 5.293 -0.406 7.62 0.941 c 2.328 1.348 3.967 3.528 4.612 6.139 l 8.703 35.19 c 0.869 3.515 -0.196 7.085 -2.849 9.548 C 84.993 71.512 82.647 72.421 80.223 72.421 z M 45 59.364 c 4.344 0 8.687 0.689 12.911 2.069 l 0 0 l 20.456 6.686 c 2.043 0.668 4.195 0.191 5.765 -1.268 c 1.572 -1.46 2.203 -3.575 1.688 -5.658 l -8.703 -35.189 c -0.383 -1.547 -1.353 -2.839 -2.733 -3.638 c -1.378 -0.798 -2.981 -0.996 -4.514 -0.557 l -13.421 3.846 c -7.489 2.146 -15.409 2.146 -22.897 0 L 20.13 21.81 c -1.534 -0.44 -3.137 -0.241 -4.516 0.558 c -1.379 0.798 -2.35 2.09 -2.732 3.637 L 4.18 61.195 c -0.515 2.082 0.116 4.197 1.687 5.657 c 1.571 1.459 3.728 1.935 5.766 1.268 l 20.456 -6.686 C 36.312 60.053 40.656 59.364 45 59.364 z" style="stroke: none; stroke-width: 1; stroke-dasharray: none; stroke-linecap: butt; stroke-linejoin: miter; stroke-miterlimit: 10; fill: rgb(0,0,0); fill-rule: nonzero; opacity: 1;" transform=" matrix(1 0 0 1 0 0) " stroke-linecap="round" />
	<path d="M 35.892 43 h -5.541 v -5.541 c 0 -1.104 -0.895 -2 -2 -2 c -1.104 0 -2 0.895 -2 2 V 43 h -5.54 c -1.104 0 -2 0.895 -2 2 s 0.895 2 2 2 h 5.54 v 5.541 c 0 1.104 0.895 2 2 2 c 1.104 0 2 -0.895 2 -2 V 47 h 5.541 c 1.104 0 2 -0.895 2 -2 S 36.996 43 35.892 43 z" style="stroke: none; stroke-width: 1; stroke-dasharray: none; stroke-linecap: butt; stroke-linejoin: miter; stroke-miterlimit: 10; fill: rgb(0,0,0); fill-rule: nonzero; opacity: 1;" transform=" matrix(1 0 0 1 0 0) " stroke-linecap="round" />
	<path d="M 61.649 54.54 c -0.13 0 -0.27 -0.01 -0.39 -0.04 c -0.13 -0.021 -0.26 -0.061 -0.38 -0.11 c -0.12 -0.05 -0.23 -0.109 -0.34 -0.18 c -0.11 -0.08 -0.21 -0.16 -0.3 -0.26 c -0.381 -0.37 -0.591 -0.881 -0.591 -1.41 c 0 -0.53 0.21 -1.04 0.591 -1.41 c 0.09 -0.1 0.189 -0.18 0.3 -0.25 c 0.109 -0.07 0.22 -0.14 0.34 -0.19 c 0.13 -0.05 0.25 -0.08 0.38 -0.109 c 0.26 -0.05 0.52 -0.05 0.78 0 c 0.13 0.029 0.25 0.06 0.37 0.109 c 0.13 0.051 0.239 0.12 0.35 0.19 c 0.11 0.07 0.21 0.15 0.3 0.25 c 0.37 0.37 0.59 0.88 0.59 1.41 c 0 0.27 -0.05 0.52 -0.149 0.77 c -0.101 0.24 -0.25 0.46 -0.44 0.641 c -0.09 0.1 -0.189 0.18 -0.3 0.26 c -0.11 0.07 -0.229 0.13 -0.35 0.18 c -0.12 0.05 -0.24 0.09 -0.37 0.11 C 61.909 54.53 61.78 54.54 61.649 54.54 z" style="stroke: none; stroke-width: 1; stroke-dasharray: none; stroke-linecap: butt; stroke-linejoin: miter; stroke-miterlimit: 10; fill: rgb(0,0,0); fill-rule: nonzero; opacity: 1;" transform=" matrix(1 0 0 1 0 0) " stroke-linecap="round" />
	<path d="M 69.188 47 c -0.27 0 -0.52 -0.05 -0.769 -0.15 c -0.24 -0.1 -0.46 -0.25 -0.64 -0.439 c -0.101 -0.091 -0.181 -0.19 -0.261 -0.301 c -0.069 -0.109 -0.13 -0.22 -0.18 -0.339 c -0.05 -0.12 -0.09 -0.25 -0.11 -0.38 c -0.029 -0.13 -0.04 -0.26 -0.04 -0.39 c 0 -0.53 0.21 -1.04 0.591 -1.42 c 0.739 -0.74 2.079 -0.74 2.819 0 c 0.38 0.38 0.59 0.89 0.59 1.42 c 0 0.13 -0.01 0.26 -0.04 0.39 c -0.02 0.13 -0.06 0.26 -0.109 0.38 c -0.05 0.12 -0.11 0.23 -0.19 0.339 c -0.069 0.11 -0.149 0.21 -0.25 0.301 c -0.18 0.189 -0.399 0.34 -0.64 0.439 C 69.709 46.95 69.459 47 69.188 47 z" style="stroke: none; stroke-width: 1; stroke-dasharray: none; stroke-linecap: butt; stroke-linejoin: miter; stroke-miterlimit: 10; fill: rgb(0,0,0); fill-rule: nonzero; opacity: 1;" transform=" matrix(1 0 0 1 0 0) " stroke-linecap="round" />
	<path d="M 61.649 39.46 c -0.13 0 -0.26 -0.01 -0.39 -0.04 c -0.13 -0.03 -0.25 -0.06 -0.38 -0.11 c -0.12 -0.05 -0.23 -0.12 -0.34 -0.19 c -0.11 -0.07 -0.21 -0.16 -0.3 -0.25 c -0.381 -0.37 -0.591 -0.88 -0.591 -1.41 c 0 -0.53 0.21 -1.04 0.591 -1.42 c 0.09 -0.09 0.189 -0.17 0.3 -0.24 c 0.109 -0.08 0.22 -0.14 0.34 -0.19 c 0.12 -0.05 0.25 -0.09 0.38 -0.11 c 0.65 -0.13 1.34 0.08 1.8 0.54 c 0.37 0.38 0.59 0.89 0.59 1.42 c 0 0.53 -0.22 1.04 -0.59 1.41 C 62.689 39.25 62.179 39.46 61.649 39.46 z" style="stroke: none; stroke-width: 1; stroke-dasharray: none; stroke-linecap: butt; stroke-linejoin: miter; stroke-miterlimit: 10; fill: rgb(0,0,0); fill-rule: nonzero; opacity: 1;" transform=" matrix(1 0 0 1 0 0) " stroke-linecap="round" />
	<path d="M 54.109 47 c -0.54 0 -1.04 -0.21 -1.42 -0.59 c -0.37 -0.37 -0.58 -0.87 -0.58 -1.41 c 0 -0.13 0.011 -0.26 0.04 -0.39 c 0.021 -0.13 0.061 -0.25 0.11 -0.38 c 0.05 -0.12 0.11 -0.23 0.18 -0.34 c 0.08 -0.11 0.16 -0.21 0.25 -0.3 c 0.75 -0.75 2.091 -0.75 2.83 0 c 0.09 0.09 0.181 0.19 0.25 0.3 c 0.07 0.11 0.13 0.22 0.181 0.34 c 0.06 0.13 0.09 0.25 0.119 0.38 c 0.03 0.13 0.04 0.26 0.04 0.39 c 0 0.53 -0.21 1.04 -0.59 1.41 C 55.139 46.79 54.639 47 54.109 47 z" style="stroke: none; stroke-width: 1; stroke-dasharray: none; stroke-linecap: butt; stroke-linejoin: miter; stroke-miterlimit: 10; fill: rgb(0,0,0); fill-rule: nonzero; opacity: 1;" transform=" matrix(1 0 0 1 0 0) " stroke-linecap="round" />
</g>
</svg>