<svg xmlns="http://www.w3.org/2000/svg" xmlns:xlink="http://www.w3.org/1999/xlink" version="1.1" width="256" height="256" viewBox="0 0 256 256" xml:space="preserve">

<defs>
</defs>
<g style="stroke: none; stroke-width: 0; stroke-dasharray: none; stroke-linecap: butt; stroke-linejoin: miter; stroke-miterlimit: 10; fill: none; fill-rule: nonzero; opacity: 1;" transform="translate(1.4065934065934016 1.4065934065934016) scale(2.81 2.81)" >
	<path d="M 56.227 70.182 H 33.773 l -0.01 -1.474 c -0.034 -5.155 -2.771 -6.957 -5.94 -9.043 c -1.22 -0.803 -2.481 -1.633 -3.582 -2.677 c -7.294 -6.094 -11.517 -15.123 -11.517 -24.711 c 0 -9.171 3.922 -17.94 10.761 -24.059 c 6.933 -6.204 15.888 -9.05 25.214 -8.009 c 14.678 1.635 26.597 13.46 28.34 28.118 c 1.303 10.955 -2.941 21.693 -11.351 28.724 c -1.031 0.982 -2.292 1.813 -3.512 2.615 c -3.17 2.086 -5.907 3.887 -5.941 9.043 L 56.227 70.182 z M 36.655 67.215 h 16.69 c 0.554 -5.653 4.071 -7.967 7.201 -10.028 c 1.163 -0.765 2.261 -1.488 3.171 -2.351 c 7.707 -6.448 11.561 -16.204 10.377 -26.16 C 72.513 15.373 61.694 4.641 48.372 3.157 c -8.475 -0.942 -16.611 1.638 -22.908 7.271 c -6.211 5.557 -9.772 13.521 -9.772 21.849 c 0 8.707 3.835 16.907 10.522 22.498 c 0.979 0.924 2.077 1.648 3.24 2.413 C 32.585 59.248 36.101 61.562 36.655 67.215 z" style="stroke: none; stroke-width: 1; stroke-dasharray: none; stroke-linecap: butt; stroke-linejoin: miter; stroke-miterlimit: 10; fill: rgb(0,0,0); fill-rule: nonzero; opacity: 1;" transform=" matrix(1 0 0 1 0 0) " stroke-linecap="round" />
	<path d="M 53.27 74.172 L 53.27 74.172 l -16.54 0 v 0 h -2.967 v 10.227 c 0 3.088 2.512 5.6 5.6 5.6 h 11.275 c 3.088 0 5.6 -2.512 5.6 -5.6 V 74.172 H 53.27 z M 50.637 87.031 H 39.363 c -1.452 0 -2.633 -1.181 -2.633 -2.633 v -7.226 h 16.54 v 7.226 C 53.27 85.85 52.089 87.031 50.637 87.031 z" style="stroke: none; stroke-width: 1; stroke-dasharray: none; stroke-linecap: butt; stroke-linejoin: miter; stroke-miterlimit: 10; fill: rgb(0,0,0); fill-rule: nonzero; opacity: 1;" transform=" matrix(1 0 0 1 0 0) " stroke-linecap="round" />
</g>
</svg>