<svg xmlns="http://www.w3.org/2000/svg" xmlns:xlink="http://www.w3.org/1999/xlink" version="1.1" width="256" height="256" viewBox="0 0 256 256" xml:space="preserve">

<defs>
</defs>
<g style="stroke: none; stroke-width: 0; stroke-dasharray: none; stroke-linecap: butt; stroke-linejoin: miter; stroke-miterlimit: 10; fill: none; fill-rule: nonzero; opacity: 1;" transform="translate(1.4065934065934016 1.4065934065934016) scale(2.81 2.81)" >
	<path d="M 45 90 C 27.003 90 12.361 75.357 12.361 57.36 c 0 -0.119 0.01 -0.235 0.03 -0.349 c 0.074 -4.396 1.538 -8.484 3.084 -12.806 c 2.465 -6.887 5.014 -14.008 1.784 -22.969 c -0.259 -0.718 -0.087 -1.52 0.444 -2.069 c 0.53 -0.548 1.325 -0.748 2.053 -0.512 c 5.258 1.699 11.641 4.451 15.856 10.783 c 7.439 -7.765 6.562 -17.532 4.419 -26.997 c -0.187 -0.824 0.165 -1.677 0.878 -2.129 c 0.712 -0.454 1.634 -0.41 2.301 0.11 c 8.554 6.66 13.329 15.209 14.257 25.487 c 2.669 -3.167 5.994 -5.203 9.142 -6.813 c 0.71 -0.363 1.566 -0.271 2.183 0.236 c 0.615 0.506 0.871 1.33 0.651 2.096 c -2.808 9.779 0.618 16.529 3.932 23.056 c 2.122 4.183 4.13 8.138 4.232 12.526 c 0.021 0.113 0.031 0.23 0.031 0.35 C 77.639 75.357 62.998 90 45 90 z M 16.363 57.681 C 16.535 73.326 29.316 86 45 86 s 28.466 -12.674 28.637 -28.319 c -0.017 -0.104 -0.025 -0.211 -0.025 -0.32 c 0 -3.571 -1.763 -7.044 -3.804 -11.065 c -2.858 -5.633 -6.319 -12.451 -5.154 -21.448 c -3.085 2.083 -5.802 4.888 -7.29 9.352 c -0.32 0.961 -1.309 1.533 -2.302 1.326 c -0.993 -0.205 -1.675 -1.12 -1.588 -2.129 c 0.901 -10.506 -1.861 -19.047 -8.429 -25.951 c 1.327 9.231 0.424 18.95 -8.58 26.687 c -0.465 0.399 -1.084 0.563 -1.687 0.446 c -0.601 -0.117 -1.115 -0.503 -1.395 -1.047 c -2.222 -4.313 -5.754 -7.397 -11.231 -9.726 c 1.832 8.498 -0.67 15.487 -2.912 21.748 c -1.467 4.1 -2.853 7.972 -2.853 11.807 C 16.388 57.47 16.38 57.576 16.363 57.681 z" style="stroke: none; stroke-width: 1; stroke-dasharray: none; stroke-linecap: butt; stroke-linejoin: miter; stroke-miterlimit: 10; fill: rgb(0,0,0); fill-rule: nonzero; opacity: 1;" transform=" matrix(1 0 0 1 0 0) " stroke-linecap="round" />
	<path d="M 45 90 c -11.377 0 -20.633 -9.256 -20.633 -20.634 c 0 -0.099 0.007 -0.195 0.021 -0.289 c 0.081 -2.82 1.333 -5.288 2.657 -7.896 c 1.946 -3.834 3.958 -7.8 2.336 -13.45 c -0.22 -0.766 0.036 -1.59 0.651 -2.096 c 0.616 -0.507 1.473 -0.599 2.182 -0.237 c 1.828 0.935 3.752 2.099 5.369 3.838 c 0.978 -2.351 2.535 -4.367 3.981 -6.24 c 1.963 -2.542 3.658 -4.737 3.296 -6.98 c -0.147 -0.913 0.351 -1.808 1.204 -2.164 c 0.855 -0.357 1.841 -0.08 2.386 0.667 c 2.7 3.7 2.338 7.615 2.047 10.76 c -0.225 2.418 -0.332 4.162 0.323 5.626 c 2.652 -3.313 6.267 -4.846 9.291 -5.823 c 0.725 -0.233 1.522 -0.036 2.053 0.513 c 0.53 0.548 0.703 1.351 0.444 2.069 c -1.869 5.185 -0.435 9.193 1.085 13.438 c 0.915 2.557 1.86 5.197 1.921 7.985 c 0.013 0.091 0.02 0.184 0.02 0.278 C 65.634 80.744 56.378 90 45 90 z M 28.369 69.611 C 28.5 78.671 35.91 86 45 86 c 9.091 0 16.502 -7.331 16.632 -16.391 c -0.01 -0.08 -0.015 -0.161 -0.015 -0.243 c 0 -2.196 -0.82 -4.488 -1.689 -6.916 c -1.269 -3.543 -2.67 -7.459 -2.062 -12.151 c -2.416 1.247 -4.014 2.815 -5.104 4.934 c -0.28 0.545 -0.794 0.931 -1.396 1.048 c -0.6 0.119 -1.222 -0.047 -1.687 -0.446 c -3.87 -3.325 -3.496 -7.362 -3.166 -10.924 c 0.067 -0.726 0.132 -1.426 0.166 -2.108 c -0.606 0.9 -1.282 1.774 -1.95 2.639 c -2.267 2.937 -4.409 5.709 -4.102 9.283 c 0.086 1.01 -0.596 1.925 -1.588 2.13 c -0.995 0.197 -1.982 -0.365 -2.302 -1.326 c -0.609 -1.828 -1.595 -3.17 -2.766 -4.224 c 0.133 4.805 -1.763 8.54 -3.36 11.686 c -1.195 2.356 -2.228 4.391 -2.228 6.375 C 28.383 69.449 28.379 69.531 28.369 69.611 z" style="stroke: none; stroke-width: 1; stroke-dasharray: none; stroke-linecap: butt; stroke-linejoin: miter; stroke-miterlimit: 10; fill: rgb(0,0,0); fill-rule: nonzero; opacity: 1;" transform=" matrix(1 0 0 1 0 0) " stroke-linecap="round" />
</g>
</svg>